<?xml version="1.0" encoding="utf-8"?>
<!-- Generator: Adobe Illustrator 16.0.0, SVG Export Plug-In . SVG Version: 6.00 Build 0)  -->
<!DOCTYPE svg PUBLIC "-//W3C//DTD SVG 1.1//EN" "http://www.w3.org/Graphics/SVG/1.1/DTD/svg11.dtd">
<svg version="1.1" id="Layer_1" xmlns="http://www.w3.org/2000/svg" xmlns:xlink="http://www.w3.org/1999/xlink" x="0px" y="0px"
	 width="425px" height="165px" viewBox="0 0 425 165" enable-background="new 0 0 425 165" xml:space="preserve">
<g>
	<path fill="#FFFFFF" d="M189.495,161.926h0.462c0.528,0,0.792-0.146,0.792-0.436v-8.445c0-0.291-0.264-0.436-0.792-0.436h-0.462
		c-0.528,0-0.792,0.145-0.792,0.436v8.445C188.703,161.779,188.967,161.926,189.495,161.926L189.495,161.926z"/>
	<path fill="#FFFFFF" d="M193.295,161.912h0.383c0.528,0,0.792-0.141,0.792-0.422v-5.346l3.536,5.412
		c0.158,0.236,0.448,0.355,0.871,0.355h0.501c0.528,0,0.792-0.141,0.792-0.422v-8.445c0-0.281-0.264-0.422-0.792-0.422h-0.383
		c-0.527,0-0.792,0.141-0.792,0.422v5.277l-3.47-5.344c-0.158-0.236-0.449-0.355-0.871-0.355h-0.567
		c-0.527,0-0.792,0.141-0.792,0.422v8.445C192.503,161.771,192.768,161.912,193.295,161.912L193.295,161.912z"/>
	<path fill="#FFFFFF" d="M202.228,161.609c0.572,0.254,1.28,0.381,2.125,0.381c0.844,0,1.557-0.211,2.138-0.633
		c0.299-0.219,0.534-0.525,0.706-0.916c0.172-0.393,0.257-0.863,0.257-1.412c0-0.551-0.132-1.023-0.396-1.42
		c-0.264-0.395-0.583-0.688-0.957-0.877c-0.374-0.189-0.745-0.354-1.115-0.494s-0.686-0.305-0.95-0.488
		c-0.264-0.186-0.396-0.396-0.396-0.633c0-0.238,0.09-0.438,0.271-0.594c0.18-0.158,0.501-0.238,0.963-0.238s0.869,0.08,1.221,0.238
		c0.123,0.061,0.202,0.092,0.237,0.092c0.149,0,0.308-0.143,0.475-0.43c0.167-0.285,0.251-0.525,0.251-0.719
		c0-0.229-0.229-0.439-0.687-0.633c-0.457-0.193-1.021-0.291-1.689-0.291c-1.196,0-2.08,0.383-2.652,1.148
		c-0.317,0.422-0.475,0.93-0.475,1.523s0.132,1.09,0.396,1.484c0.264,0.396,0.581,0.689,0.95,0.879
		c0.37,0.189,0.741,0.355,1.115,0.5c0.374,0.146,0.693,0.314,0.957,0.51c0.264,0.193,0.396,0.43,0.396,0.711
		c0,0.643-0.414,0.963-1.241,0.963c-0.519,0-1.051-0.152-1.596-0.461c-0.176-0.098-0.291-0.145-0.343-0.145
		c-0.141,0-0.312,0.145-0.515,0.436c-0.202,0.289-0.304,0.535-0.304,0.738C201.37,161.094,201.656,161.354,202.228,161.609z"/>
	<path fill="#FFFFFF" d="M211.069,161.912h0.462c0.528,0,0.792-0.141,0.792-0.422v-7.113h2.098c0.264,0,0.396-0.219,0.396-0.66
		v-0.408c0-0.439-0.133-0.66-0.396-0.66h-6.241c-0.264,0-0.396,0.221-0.396,0.66v0.408c0,0.441,0.132,0.66,0.396,0.66h2.098v7.113
		C210.277,161.771,210.541,161.912,211.069,161.912L211.069,161.912z"/>
	<path fill="#FFFFFF" d="M216.545,161.926h0.461c0.528,0,0.793-0.146,0.793-0.436v-8.445c0-0.291-0.265-0.436-0.793-0.436h-0.461
		c-0.528,0-0.792,0.145-0.792,0.436v8.445C215.753,161.779,216.017,161.926,216.545,161.926L216.545,161.926z"/>
	<path fill="#FFFFFF" d="M222.033,161.912h0.463c0.527,0,0.791-0.141,0.791-0.422v-7.113h2.098c0.264,0,0.396-0.219,0.396-0.66
		v-0.408c0-0.439-0.133-0.66-0.396-0.66h-6.24c-0.265,0-0.396,0.221-0.396,0.66v0.408c0,0.441,0.132,0.66,0.396,0.66h2.098v7.113
		C221.242,161.771,221.506,161.912,222.033,161.912L222.033,161.912z"/>
	<path fill="#FFFFFF" d="M227.76,161.154c0.669,0.557,1.61,0.836,2.824,0.836s2.155-0.279,2.824-0.836
		c0.668-0.561,1.002-1.346,1.002-2.355v-5.754c0-0.281-0.264-0.422-0.791-0.422h-0.436c-0.527,0-0.792,0.141-0.792,0.422v5.621
		c0,0.467-0.169,0.85-0.508,1.148s-0.772,0.447-1.3,0.447s-0.959-0.148-1.293-0.447s-0.502-0.682-0.502-1.148v-5.621
		c0-0.281-0.264-0.422-0.791-0.422h-0.449c-0.527,0-0.791,0.141-0.791,0.422v5.754C226.758,159.809,227.092,160.594,227.76,161.154z
		"/>
	<path fill="#FFFFFF" d="M238.672,161.912h0.463c0.527,0,0.791-0.141,0.791-0.422v-7.113h2.098c0.264,0,0.396-0.219,0.396-0.66
		v-0.408c0-0.439-0.133-0.66-0.396-0.66h-6.24c-0.265,0-0.396,0.221-0.396,0.66v0.408c0,0.441,0.132,0.66,0.396,0.66h2.098v7.113
		C237.881,161.771,238.145,161.912,238.672,161.912L238.672,161.912z"/>
	<path fill="#FFFFFF" d="M247.354,161.99c1.364,0,2.408-0.406,3.134-1.221c0.727-0.812,1.089-1.98,1.089-3.502
		s-0.362-2.689-1.089-3.504c-0.726-0.814-1.77-1.221-3.134-1.221s-2.41,0.406-3.14,1.221c-0.73,0.814-1.096,1.982-1.096,3.504
		s0.365,2.689,1.096,3.502C244.944,161.584,245.99,161.99,247.354,161.99z M245.203,157.268c0-0.977,0.184-1.719,0.549-2.225
		c0.364-0.504,0.898-0.758,1.603-0.758s1.235,0.254,1.597,0.758c0.361,0.506,0.541,1.248,0.541,2.225s-0.18,1.719-0.541,2.23
		c-0.361,0.51-0.893,0.764-1.597,0.764s-1.238-0.254-1.603-0.764C245.387,158.986,245.203,158.244,245.203,157.268z"/>
	<path fill="#FFFFFF" d="M256.775,161.885h2.797c1.1,0,1.925-0.23,2.475-0.691c0.55-0.463,0.824-1.123,0.824-1.986
		c0-0.51-0.166-0.973-0.501-1.385c-0.335-0.414-0.761-0.674-1.28-0.779l-0.013-0.053c0.413-0.168,0.754-0.434,1.022-0.799
		s0.402-0.768,0.402-1.207c0-0.73-0.25-1.301-0.752-1.715s-1.289-0.621-2.361-0.621h-2.613c-0.352,0-0.527,0.178-0.527,0.527v8.182
		C256.248,161.709,256.424,161.885,256.775,161.885L256.775,161.885z M258.279,154.365h0.938c0.801,0,1.201,0.324,1.201,0.975
		c0,0.291-0.108,0.529-0.324,0.713c-0.215,0.186-0.517,0.277-0.903,0.277h-0.911V154.365z M258.279,158.059h1.082
		c0.951,0,1.426,0.344,1.426,1.029c0,0.344-0.105,0.607-0.316,0.791c-0.212,0.186-0.511,0.277-0.898,0.277h-1.293V158.059z"/>
	<path fill="#FFFFFF" d="M264.785,161.926h0.461c0.528,0,0.792-0.146,0.792-0.436v-8.445c0-0.291-0.264-0.436-0.792-0.436h-0.461
		c-0.528,0-0.792,0.145-0.792,0.436v8.445C263.993,161.779,264.257,161.926,264.785,161.926L264.785,161.926z"/>
	<path fill="#FFFFFF" d="M271.712,161.99c1.363,0,2.408-0.406,3.134-1.221c0.727-0.812,1.089-1.98,1.089-3.502
		s-0.362-2.689-1.089-3.504c-0.726-0.814-1.771-1.221-3.134-1.221s-2.41,0.406-3.14,1.221c-0.73,0.814-1.096,1.982-1.096,3.504
		s0.365,2.689,1.096,3.502C269.302,161.584,270.349,161.99,271.712,161.99z M269.561,157.268c0-0.977,0.184-1.719,0.549-2.225
		c0.364-0.504,0.898-0.758,1.603-0.758s1.235,0.254,1.597,0.758c0.361,0.506,0.541,1.248,0.541,2.225s-0.18,1.719-0.541,2.23
		c-0.361,0.51-0.893,0.764-1.597,0.764s-1.238-0.254-1.603-0.764C269.744,158.986,269.561,158.244,269.561,157.268z"/>
	<path fill="#FFFFFF" d="M277.735,160.092c0.409,0.748,1.005,1.275,1.788,1.582c1.275,0.502,2.492,0.984,3.648,1.445
		c1.156,0.463,1.762,0.693,1.814,0.693c0.185,0,0.352-0.182,0.501-0.541c0.149-0.361,0.225-0.609,0.225-0.746
		s-0.062-0.227-0.185-0.27l-2.02-0.727v-0.053c1.381-0.713,2.072-2.115,2.072-4.209c0-1.521-0.363-2.689-1.089-3.504
		s-1.771-1.221-3.134-1.221s-2.41,0.406-3.141,1.221s-1.095,1.982-1.095,3.504C277.122,158.402,277.326,159.344,277.735,160.092z
		 M279.207,157.281c0-0.986,0.182-1.732,0.547-2.238c0.365-0.504,0.899-0.758,1.604-0.758c0.703,0,1.236,0.254,1.597,0.758
		c0.36,0.506,0.541,1.252,0.541,2.238c0,0.984-0.181,1.736-0.541,2.256s-0.894,0.777-1.597,0.777c-0.704,0-1.238-0.258-1.604-0.777
		S279.207,158.266,279.207,157.281z"/>
	<path fill="#FFFFFF" d="M288.047,161.154c0.668,0.557,1.609,0.836,2.824,0.836c1.214,0,2.154-0.279,2.823-0.836
		c0.669-0.561,1.003-1.346,1.003-2.355v-5.754c0-0.281-0.264-0.422-0.791-0.422h-0.436c-0.528,0-0.792,0.141-0.792,0.422v5.621
		c0,0.467-0.17,0.85-0.509,1.148c-0.338,0.299-0.771,0.447-1.299,0.447s-0.959-0.148-1.293-0.447
		c-0.335-0.299-0.502-0.682-0.502-1.148v-5.621c0-0.281-0.264-0.422-0.791-0.422h-0.449c-0.527,0-0.791,0.141-0.791,0.422v5.754
		C287.045,159.809,287.379,160.594,288.047,161.154z"/>
	<path fill="#FFFFFF" d="M297.191,161.926h0.461c0.528,0,0.793-0.146,0.793-0.436v-8.445c0-0.291-0.265-0.436-0.793-0.436h-0.461
		c-0.528,0-0.792,0.145-0.792,0.436v8.445C296.399,161.779,296.663,161.926,297.191,161.926L297.191,161.926z M297.877,151.33
		c0.123-0.133,0.246-0.266,0.369-0.402s0.216-0.238,0.277-0.305c0.062-0.066,0.172-0.18,0.33-0.342
		c0.158-0.164,0.264-0.279,0.316-0.35s0.08-0.133,0.08-0.186c0-0.123-0.287-0.186-0.858-0.186s-0.923,0.119-1.056,0.357
		c-0.105,0.184-0.211,0.369-0.316,0.555c-0.105,0.184-0.223,0.373-0.35,0.566s-0.191,0.334-0.191,0.422
		c0,0.133,0.137,0.199,0.409,0.199C297.345,151.66,297.675,151.549,297.877,151.33L297.877,151.33z"/>
	<path fill="#FFFFFF" d="M300.991,161.912h0.383c0.528,0,0.792-0.141,0.792-0.422v-5.463l0.053-0.014l1.913,3.418
		c0.123,0.166,0.299,0.25,0.527,0.25h0.383c0.229,0,0.405-0.084,0.528-0.25l1.912-3.418l0.054,0.014v5.463
		c0,0.281,0.264,0.422,0.792,0.422h0.383c0.527,0,0.791-0.141,0.791-0.422v-8.445c0-0.281-0.264-0.422-0.791-0.422h-0.688
		c-0.422,0-0.699,0.119-0.83,0.355l-2.35,4.131l-2.322-4.131c-0.131-0.236-0.408-0.355-0.831-0.355h-0.699
		c-0.528,0-0.792,0.141-0.792,0.422v8.445C300.199,161.771,300.463,161.912,300.991,161.912L300.991,161.912z"/>
	<path fill="#FFFFFF" d="M312.035,161.926h0.462c0.528,0,0.792-0.146,0.792-0.436v-8.445c0-0.291-0.264-0.436-0.792-0.436h-0.462
		c-0.527,0-0.791,0.145-0.791,0.436v8.445C311.244,161.779,311.508,161.926,312.035,161.926L312.035,161.926z"/>
	<path fill="#FFFFFF" d="M315.789,160.836c0.708,0.77,1.801,1.154,3.279,1.154c0.66,0,1.314-0.096,1.966-0.289
		s0.977-0.467,0.977-0.818c0-0.158-0.084-0.389-0.251-0.693c-0.167-0.303-0.343-0.455-0.527-0.455c-0.035,0-0.15,0.045-0.344,0.133
		c-0.58,0.264-1.188,0.395-1.82,0.395c-1.504,0-2.256-0.996-2.256-2.988s0.76-2.988,2.282-2.988c0.651,0,1.205,0.105,1.663,0.316
		c0.158,0.07,0.25,0.105,0.276,0.105c0.158,0,0.341-0.158,0.548-0.475s0.311-0.572,0.311-0.766c0-0.264-0.3-0.484-0.898-0.66
		c-0.598-0.176-1.218-0.264-1.859-0.264c-2.938,0-4.408,1.566-4.408,4.697C314.727,158.869,315.081,160.066,315.789,160.836z"/>
	<path fill="#FFFFFF" d="M327.13,161.99c1.364,0,2.408-0.406,3.134-1.221c0.727-0.812,1.089-1.98,1.089-3.502
		s-0.362-2.689-1.089-3.504c-0.726-0.814-1.77-1.221-3.134-1.221c-1.363,0-2.41,0.406-3.14,1.221
		c-0.73,0.814-1.096,1.982-1.096,3.504s0.365,2.689,1.096,3.502C324.72,161.584,325.767,161.99,327.13,161.99z M324.979,157.268
		c0-0.977,0.183-1.719,0.548-2.225c0.365-0.504,0.898-0.758,1.603-0.758s1.235,0.254,1.597,0.758
		c0.361,0.506,0.541,1.248,0.541,2.225s-0.18,1.719-0.541,2.23c-0.361,0.51-0.893,0.764-1.597,0.764s-1.237-0.254-1.603-0.764
		C325.162,158.986,324.979,158.244,324.979,157.268z"/>
	<path fill="#FFFFFF" d="M338.504,161.912h0.462c0.528,0,0.792-0.141,0.792-0.422v-7.113h2.098c0.264,0,0.396-0.219,0.396-0.66
		v-0.408c0-0.439-0.133-0.66-0.396-0.66h-6.241c-0.264,0-0.396,0.221-0.396,0.66v0.408c0,0.441,0.132,0.66,0.396,0.66h2.099v7.113
		C337.713,161.771,337.977,161.912,338.504,161.912L338.504,161.912z"/>
	<path fill="#FFFFFF" d="M344.059,161.912h0.449c0.527,0,0.791-0.141,0.791-0.422v-3.221h0.516c0.396,0,0.68,0.061,0.851,0.18
		c0.171,0.117,0.332,0.322,0.481,0.611l1.043,2.574c0.07,0.186,0.324,0.277,0.765,0.277h0.541c0.528,0,0.792-0.088,0.792-0.264
		c0-0.053-0.021-0.137-0.066-0.252l-1.16-2.902c-0.115-0.281-0.26-0.539-0.436-0.771c-0.177-0.232-0.348-0.381-0.516-0.441v-0.053
		c0.476-0.178,0.852-0.447,1.129-0.812s0.416-0.793,0.416-1.287c0-1.652-1.096-2.48-3.286-2.48h-2.573
		c-0.352,0-0.527,0.178-0.527,0.527v8.314C343.268,161.771,343.531,161.912,344.059,161.912L344.059,161.912z M345.299,154.377
		h1.162c0.343,0,0.613,0.09,0.811,0.271c0.198,0.18,0.297,0.426,0.297,0.738s-0.101,0.578-0.303,0.799
		c-0.203,0.221-0.44,0.33-0.713,0.33h-1.254V154.377z"/>
	<path fill="#FFFFFF" d="M351.844,161.885h4.843c0.264,0,0.396-0.219,0.396-0.66v-0.408c0-0.439-0.132-0.66-0.396-0.66h-3.339
		v-2.137h2.969c0.265,0,0.396-0.221,0.396-0.66v-0.408c0-0.439-0.132-0.66-0.396-0.66h-2.969v-1.914h3.326
		c0.264,0,0.395-0.219,0.395-0.66v-0.408c0-0.439-0.131-0.66-0.395-0.66h-4.83c-0.352,0-0.527,0.178-0.527,0.527v8.182
		C351.316,161.709,351.492,161.885,351.844,161.885L351.844,161.885z"/>
	<path fill="#FFFFFF" d="M358.758,161.609c0.572,0.254,1.279,0.381,2.125,0.381c0.844,0,1.557-0.211,2.137-0.633
		c0.299-0.219,0.535-0.525,0.706-0.916c0.172-0.393,0.257-0.863,0.257-1.412c0-0.551-0.131-1.023-0.395-1.42
		c-0.265-0.395-0.584-0.688-0.957-0.877c-0.374-0.189-0.746-0.354-1.115-0.494s-0.686-0.305-0.95-0.488
		c-0.264-0.186-0.396-0.396-0.396-0.633c0-0.238,0.09-0.438,0.271-0.594c0.181-0.158,0.501-0.238,0.963-0.238
		s0.868,0.08,1.221,0.238c0.123,0.061,0.202,0.092,0.237,0.092c0.15,0,0.309-0.143,0.475-0.43c0.168-0.285,0.252-0.525,0.252-0.719
		c0-0.229-0.229-0.439-0.687-0.633c-0.458-0.193-1.021-0.291-1.689-0.291c-1.196,0-2.08,0.383-2.651,1.148
		c-0.317,0.422-0.476,0.93-0.476,1.523s0.132,1.09,0.396,1.484c0.264,0.396,0.581,0.689,0.95,0.879
		c0.37,0.189,0.741,0.355,1.115,0.5c0.374,0.146,0.692,0.314,0.956,0.51c0.264,0.193,0.396,0.43,0.396,0.711
		c0,0.643-0.414,0.963-1.24,0.963c-0.52,0-1.052-0.152-1.597-0.461c-0.177-0.098-0.29-0.145-0.343-0.145
		c-0.141,0-0.312,0.145-0.516,0.436c-0.202,0.289-0.303,0.535-0.303,0.738C357.9,161.094,358.186,161.354,358.758,161.609z"/>
	<path fill="#FFFFFF" d="M368.179,161.912h0.528c0.343,0,0.545-0.092,0.606-0.277l0.528-1.609h3.113l0.528,1.609
		c0.062,0.186,0.308,0.277,0.739,0.277h0.58c0.439,0,0.66-0.098,0.66-0.291c0-0.07-0.014-0.148-0.04-0.238l-2.903-8.482
		c-0.07-0.186-0.32-0.277-0.752-0.277h-0.686c-0.432,0-0.682,0.092-0.752,0.277l-2.903,8.482c-0.035,0.125-0.053,0.203-0.053,0.238
		C367.374,161.814,367.643,161.912,368.179,161.912L368.179,161.912z M371.188,155.934c0.053-0.148,0.119-0.43,0.197-0.844h0.053
		l0.199,0.844l0.752,2.35h-1.979L371.188,155.934z"/>
	<path fill="#FFFFFF" d="M377.164,161.912h0.449c0.527,0,0.791-0.141,0.791-0.422v-3.221h0.516c0.396,0,0.68,0.061,0.851,0.18
		c0.172,0.117,0.332,0.322,0.481,0.611l1.043,2.574c0.07,0.186,0.325,0.277,0.766,0.277h0.541c0.527,0,0.791-0.088,0.791-0.264
		c0-0.053-0.021-0.137-0.066-0.252l-1.16-2.902c-0.115-0.281-0.26-0.539-0.436-0.771s-0.348-0.381-0.516-0.441v-0.053
		c0.476-0.178,0.852-0.447,1.129-0.812s0.416-0.793,0.416-1.287c0-1.652-1.096-2.48-3.286-2.48H376.9
		c-0.352,0-0.527,0.178-0.527,0.527v8.314C376.373,161.771,376.637,161.912,377.164,161.912L377.164,161.912z M378.404,154.377
		h1.162c0.343,0,0.613,0.09,0.811,0.271c0.199,0.18,0.297,0.426,0.297,0.738s-0.101,0.578-0.303,0.799
		c-0.203,0.221-0.439,0.33-0.713,0.33h-1.254V154.377z"/>
	<path fill="#FFFFFF" d="M385.213,161.912h0.449c0.527,0,0.791-0.141,0.791-0.422v-3.221h0.516c0.396,0,0.68,0.061,0.851,0.18
		c0.171,0.117,0.332,0.322,0.481,0.611l1.043,2.574c0.07,0.186,0.325,0.277,0.766,0.277h0.541c0.527,0,0.791-0.088,0.791-0.264
		c0-0.053-0.021-0.137-0.066-0.252l-1.16-2.902c-0.115-0.281-0.26-0.539-0.436-0.771c-0.177-0.232-0.348-0.381-0.516-0.441v-0.053
		c0.476-0.178,0.852-0.447,1.129-0.812s0.416-0.793,0.416-1.287c0-1.652-1.096-2.48-3.286-2.48h-2.573
		c-0.352,0-0.527,0.178-0.527,0.527v8.314C384.422,161.771,384.686,161.912,385.213,161.912L385.213,161.912z M386.453,154.377
		h1.162c0.343,0,0.613,0.09,0.811,0.271c0.198,0.18,0.297,0.426,0.297,0.738s-0.101,0.578-0.303,0.799
		c-0.203,0.221-0.439,0.33-0.713,0.33h-1.254V154.377z"/>
	<path fill="#FFFFFF" d="M396.389,161.99c1.364,0,2.408-0.406,3.135-1.221c0.726-0.812,1.088-1.98,1.088-3.502
		s-0.362-2.689-1.088-3.504c-0.727-0.814-1.771-1.221-3.135-1.221c-1.363,0-2.41,0.406-3.14,1.221
		c-0.73,0.814-1.095,1.982-1.095,3.504s0.364,2.689,1.095,3.502C393.979,161.584,395.025,161.99,396.389,161.99z M394.238,157.268
		c0-0.977,0.183-1.719,0.548-2.225c0.364-0.504,0.899-0.758,1.603-0.758c0.704,0,1.236,0.254,1.598,0.758
		c0.36,0.506,0.541,1.248,0.541,2.225s-0.181,1.719-0.541,2.23c-0.361,0.51-0.894,0.764-1.598,0.764
		c-0.703,0-1.238-0.254-1.603-0.764C394.421,158.986,394.238,158.244,394.238,157.268z"/>
	<path fill="#FFFFFF" d="M404.676,161.912h0.448c0.528,0,0.792-0.141,0.792-0.422v-3.998l2.626-4.275
		c0.079-0.133,0.118-0.242,0.118-0.33c0-0.176-0.277-0.264-0.831-0.264h-0.475c-0.431,0-0.695,0.084-0.792,0.25l-1.623,2.824
		l-1.609-2.824c-0.098-0.166-0.361-0.25-0.792-0.25h-0.567c-0.562,0-0.845,0.088-0.845,0.264c0,0.07,0.044,0.18,0.132,0.33
		l2.626,4.234v4.039C403.884,161.771,404.148,161.912,404.676,161.912L404.676,161.912z"/>
	<path fill="#FFFFFF" d="M413.41,161.99c1.363,0,2.408-0.406,3.135-1.221c0.725-0.812,1.088-1.98,1.088-3.502
		s-0.363-2.689-1.088-3.504c-0.727-0.814-1.771-1.221-3.135-1.221s-2.41,0.406-3.141,1.221c-0.729,0.814-1.095,1.982-1.095,3.504
		s0.365,2.689,1.095,3.502C411,161.584,412.047,161.99,413.41,161.99z M411.26,157.268c0-0.977,0.183-1.719,0.548-2.225
		c0.364-0.504,0.899-0.758,1.603-0.758c0.704,0,1.236,0.254,1.598,0.758c0.359,0.506,0.541,1.248,0.541,2.225
		s-0.182,1.719-0.541,2.23c-0.361,0.51-0.894,0.764-1.598,0.764c-0.703,0-1.238-0.254-1.603-0.764
		C411.442,158.986,411.26,158.244,411.26,157.268z"/>
	<path fill="#FFFFFF" d="M419.375,161.609c0.571,0.254,1.279,0.381,2.124,0.381s1.557-0.211,2.138-0.633
		c0.299-0.219,0.534-0.525,0.705-0.916c0.172-0.393,0.258-0.863,0.258-1.412c0-0.551-0.132-1.023-0.396-1.42
		c-0.265-0.395-0.583-0.688-0.957-0.877s-0.745-0.354-1.114-0.494c-0.37-0.141-0.687-0.305-0.951-0.488
		c-0.264-0.186-0.395-0.396-0.395-0.633c0-0.238,0.09-0.438,0.27-0.594c0.181-0.158,0.502-0.238,0.963-0.238
		c0.463,0,0.869,0.08,1.221,0.238c0.123,0.061,0.203,0.092,0.238,0.092c0.148,0,0.308-0.143,0.475-0.43
		c0.167-0.285,0.251-0.525,0.251-0.719c0-0.229-0.229-0.439-0.687-0.633s-1.021-0.291-1.688-0.291c-1.196,0-2.081,0.383-2.652,1.148
		c-0.317,0.422-0.476,0.93-0.476,1.523s0.133,1.09,0.396,1.484c0.264,0.396,0.58,0.689,0.949,0.879
		c0.37,0.189,0.742,0.355,1.115,0.5c0.374,0.146,0.693,0.314,0.957,0.51c0.264,0.193,0.396,0.43,0.396,0.711
		c0,0.643-0.414,0.963-1.241,0.963c-0.519,0-1.052-0.152-1.597-0.461c-0.176-0.098-0.29-0.145-0.343-0.145
		c-0.141,0-0.312,0.145-0.515,0.436c-0.202,0.289-0.304,0.535-0.304,0.738C418.517,161.094,418.803,161.354,419.375,161.609z"/>
	<path fill-rule="evenodd" clip-rule="evenodd" fill="#FFFFFF" d="M398.08,144.152l-2.707-9.975h-22l-2.459,9.975h-25.293
		l14.752-51.975h-6v-27l28.719,0.018l0.029,0.043c12.931,0,18.676,6.831,22.453,18.981l17.798,59.932H398.08z M384.496,93.035
		l-6.123,22.143h12L384.496,93.035z M332.373,144.178h-25v-52h-17v-8c0-8.079-4.529-15.495-11.523-18.515l-0.223-0.467l70.746-0.018
		v27h-17V144.178z M275.309,102.688c8.299,2.578,14.107,8.861,14.107,18.635c0,13.133-10.485,22.83-23.419,22.83l-39.624,0.025v-52
		h-9v-9c0-8.072-3.658-14.471-10.645-17.495l-0.231-0.487h57.626l0.03,0.043c13.085-0.043,21.516,8.617,21.516,20.798
		C285.669,94.135,281.648,99.729,275.309,102.688z M256.367,84.166h-5.99v13h5.99c3.068,0,5.992-3.109,5.992-6.5
		S259.436,84.166,256.367,84.166z M255.711,113.186h-5.334v12.988h5.334c3.229,0,6.668-2.49,6.668-6.494
		S258.939,113.186,255.711,113.186z M212.373,144.178h-24c0,0,0-40.291,0-46c0-5.15-2.389-8.076-5.748-9.199
		c-1.901-0.637-6.264,0.504-6.264,0.504s0-21.637,0-21.875c4.849-2.149,11.126-2.237,14.079-2.369c0.482,0,0.998,0,1.583,0
		c12.823,0,20.35,9.757,20.35,21.938C212.373,103.666,212.373,144.178,212.373,144.178z"/>
	<path fill-rule="evenodd" clip-rule="evenodd" fill="#FFFFFF" d="M155.849,76.452c-1.946,5.956-22.294,71.095-24.053,76.899
		c-1.758,5.807-6.362,9.818-11.224,9.818H37.188c-3.001,0-5.899-1.537-8.096-4.072c21.652-15.771,36.626-22.914,51.391-28.652
		c11.27-4.379,26.308-7.357,32.872-7.162c9.235,0.273,12.69-2.441,13.63-7.562c1.603-8.729-4.997-17.043-24.053-13.09
		c-11.761,2.439-41.098,11.588-78.708,45.094c-0.737-2.373-1.664-5.354-2.712-8.719c37.728-30.498,50.955-37.617,70.195-44.557
		c10.704-3.859,26.691-6.586,32.672-6.945c11.274-0.678,14.386-2.076,15.434-7.779c1.603-8.727-4.997-17.043-24.053-13.089
		c-13.703,2.843-51.25,11.693-97.959,60.472c-0.858-2.75-1.746-5.592-2.643-8.461c38.054-37.404,85.576-64.61,130.782-68.961
		c0.276,0.175,4.745,3.594,5.097,3.86C157.016,58.072,159.056,66.635,155.849,76.452z M12.07,108.766
		C7.218,93.258,2.769,79.083,1.91,76.452c-3.207-9.817-1.167-18.38,4.811-22.907C8.799,51.972,69.258,4.461,69.258,4.461
		s3.207-3.272,9.621-3.272S88.5,4.461,88.5,4.461s17.539,13.783,34.049,26.748C66.018,50.558,26.582,91.178,12.07,108.766z"/>
</g>
</svg>
